<?xml version="1.0" encoding="UTF-8"?>
<!DOCTYPE svg PUBLIC "-//W3C//DTD SVG 1.1//EN" "http://www.w3.org/Graphics/SVG/1.1/DTD/svg11.dtd">
<svg xmlns="http://www.w3.org/2000/svg" version="1.1" width="500px" height="500px" style="shape-rendering:geometricPrecision; text-rendering:geometricPrecision; image-rendering:optimizeQuality; fill-rule:evenodd; clip-rule:evenodd" xmlns:xlink="http://www.w3.org/1999/xlink">
<g><path style="opacity:1" fill="#020100" d="M -0.5,-0.5 C 166.167,-0.5 332.833,-0.5 499.5,-0.5C 499.5,53.5 499.5,107.5 499.5,161.5C 495.317,160.997 491.151,160.331 487,159.5C 485.893,159.585 484.893,159.919 484,160.5C 483.402,164.057 482.569,167.557 481.5,171C 481.905,171.945 482.572,172.612 483.5,173C 486.146,173.497 488.813,173.664 491.5,173.5C 472.427,249.648 452.76,325.648 432.5,401.5C 399.652,382.995 364.652,370.662 327.5,364.5C 327.5,361.833 327.5,359.167 327.5,356.5C 361.826,360.553 394.326,370.553 425,386.5C 446.286,304.355 466.786,222.021 486.5,139.5C 478.572,138.07 470.572,137.403 462.5,137.5C 461.708,141.211 460.708,144.878 459.5,148.5C 463.506,150.882 467.839,151.882 472.5,151.5C 453.827,224.524 434.994,297.524 416,370.5C 415.439,371.022 414.772,371.355 414,371.5C 386.329,359.874 357.496,353.208 327.5,351.5C 327.5,348.167 327.5,344.833 327.5,341.5C 354.98,341.563 381.48,346.563 407,356.5C 427.299,274.97 447.132,193.303 466.5,111.5C 466.392,110.558 466.059,109.725 465.5,109C 456.513,108.215 447.513,107.715 438.5,107.5C 437.514,111.443 436.848,115.443 436.5,119.5C 441.953,119.365 447.286,120.032 452.5,121.5C 434.5,194.501 416.333,267.501 398,340.5C 397.107,341.081 396.107,341.415 395,341.5C 372.756,337.395 350.422,336.061 328,337.5C 327.501,333.514 327.334,329.514 327.5,325.5C 347.247,325.105 366.914,326.105 386.5,328.5C 404.544,246.366 423.211,164.366 442.5,82.5C 442.392,81.5581 442.059,80.7247 441.5,80C 404.342,76.4012 368.008,80.2345 332.5,91.5C 306.867,65.0319 281.367,38.3652 256,11.5C 256.33,59.1603 256.497,106.827 256.5,154.5C 270.698,158.86 274.198,167.527 267,180.5C 257.638,188.351 247.471,189.517 236.5,184C 225.551,174.222 225.885,164.889 237.5,156C 239.025,154.991 240.692,154.491 242.5,154.5C 242.405,106.825 241.738,59.1588 240.5,11.5C 216.173,38.1609 191.84,64.8275 167.5,91.5C 145.945,85.1125 123.945,80.9458 101.5,79C 86.56,78.0687 71.7267,78.5687 57,80.5C 56.3333,82.1667 56.3333,83.8333 57,85.5C 75.6616,166.478 94.1616,247.478 112.5,328.5C 131.069,325.934 149.735,324.934 168.5,325.5C 170.607,326.468 172.941,326.802 175.5,326.5C 175.5,330.167 175.5,333.833 175.5,337.5C 150.318,335.595 125.318,336.928 100.5,341.5C 82.4987,268.162 64.4987,194.828 46.5,121.5C 51.6964,119.913 57.0297,119.246 62.5,119.5C 61.8333,115.5 61.1667,111.5 60.5,107.5C 50.6791,107.249 41.0124,108.249 31.5,110.5C 51.8036,191.381 71.6369,272.381 91,353.5C 91.3879,354.428 92.0546,355.095 93,355.5C 119.518,345.097 147.018,340.43 175.5,341.5C 175.5,344.833 175.5,348.167 175.5,351.5C 143.462,352.506 112.795,359.506 83.5,372.5C 64.0264,298.938 45.0264,225.272 26.5,151.5C 30.8795,150.987 35.2128,150.153 39.5,149C 38.5663,145.51 37.5663,142.01 36.5,138.5C 28.5078,137.942 20.5078,138.275 12.5,139.5C 32.36,221.273 52.6933,302.94 73.5,384.5C 74.365,385.583 75.365,385.749 76.5,385C 107.744,369.187 140.744,359.354 175.5,355.5C 175.806,358.385 175.473,361.052 174.5,363.5C 172.901,363.232 171.568,363.566 170.5,364.5C 133.435,370.577 98.6018,382.91 66,401.5C 46.1818,325.56 26.6818,249.56 7.5,173.5C 10.8806,173.54 14.2139,173.207 17.5,172.5C 17.0462,168.185 16.0462,164.019 14.5,160C 9.51159,159.913 4.51159,160.08 -0.5,160.5C -0.5,106.833 -0.5,53.1667 -0.5,-0.5 Z"/></g>
<g><path style="opacity:1" fill="#fddc58" d="M 332.5,91.5 C 334.196,93.5248 335.863,95.5248 337.5,97.5C 347.682,107.515 357.348,118.015 366.5,129C 333.219,172.057 308.719,219.89 293,272.5C 291.181,279.451 289.681,286.451 288.5,293.5C 263.259,293.828 238.092,293.495 213,292.5C 197.833,232.33 170.666,178.497 131.5,131C 141.337,119.664 151.337,108.498 161.5,97.5C 163.833,95.8333 165.833,93.8333 167.5,91.5C 191.84,64.8275 216.173,38.1609 240.5,11.5C 241.738,59.1588 242.405,106.825 242.5,154.5C 240.692,154.491 239.025,154.991 237.5,156C 225.885,164.889 225.551,174.222 236.5,184C 247.471,189.517 257.638,188.351 267,180.5C 274.198,167.527 270.698,158.86 256.5,154.5C 256.497,106.827 256.33,59.1603 256,11.5C 281.367,38.3652 306.867,65.0319 332.5,91.5 Z"/></g>
<g><path style="opacity:1" fill="#d3a957" d="M 167.5,91.5 C 165.833,93.8333 163.833,95.8333 161.5,97.5C 131.283,88.6517 100.616,87.3183 69.5,93.5C 87.439,167.463 105.272,241.463 123,315.5C 141.605,315.606 160.105,317.273 178.5,320.5C 180.599,321.612 182.933,322.279 185.5,322.5C 228.167,323.833 270.833,323.833 313.5,322.5C 314.766,321.91 316.099,321.41 317.5,321C 271.096,320.828 224.763,320.328 178.5,319.5C 177.883,319.389 177.383,319.056 177,318.5C 176.333,312.5 176.333,306.5 177,300.5C 177.5,300 178,299.5 178.5,299C 227.5,298.333 276.5,298.333 325.5,299C 326,299.5 326.5,300 327,300.5C 327.425,307.104 327.592,313.438 327.5,319.5C 343.369,316.325 359.369,315.659 375.5,317.5C 393.806,242.597 411.473,167.597 428.5,92.5C 418.824,91.8509 409.157,91.0176 399.5,90C 378.241,88.6953 357.574,91.1953 337.5,97.5C 335.863,95.5248 334.196,93.5248 332.5,91.5C 368.008,80.2345 404.342,76.4012 441.5,80C 442.059,80.7247 442.392,81.5581 442.5,82.5C 423.211,164.366 404.544,246.366 386.5,328.5C 366.914,326.105 347.247,325.105 327.5,325.5C 327.334,329.514 327.501,333.514 328,337.5C 350.422,336.061 372.756,337.395 395,341.5C 396.107,341.415 397.107,341.081 398,340.5C 416.333,267.501 434.5,194.501 452.5,121.5C 447.286,120.032 441.953,119.365 436.5,119.5C 436.848,115.443 437.514,111.443 438.5,107.5C 447.513,107.715 456.513,108.215 465.5,109C 466.059,109.725 466.392,110.558 466.5,111.5C 447.132,193.303 427.299,274.97 407,356.5C 381.48,346.563 354.98,341.563 327.5,341.5C 327.5,344.833 327.5,348.167 327.5,351.5C 357.496,353.208 386.329,359.874 414,371.5C 414.772,371.355 415.439,371.022 416,370.5C 434.994,297.524 453.827,224.524 472.5,151.5C 467.839,151.882 463.506,150.882 459.5,148.5C 460.708,144.878 461.708,141.211 462.5,137.5C 470.572,137.403 478.572,138.07 486.5,139.5C 466.786,222.021 446.286,304.355 425,386.5C 394.326,370.553 361.826,360.553 327.5,356.5C 327.5,359.167 327.5,361.833 327.5,364.5C 364.652,370.662 399.652,382.995 432.5,401.5C 452.76,325.648 472.427,249.648 491.5,173.5C 488.813,173.664 486.146,173.497 483.5,173C 482.572,172.612 481.905,171.945 481.5,171C 482.569,167.557 483.402,164.057 484,160.5C 484.893,159.919 485.893,159.585 487,159.5C 491.151,160.331 495.317,160.997 499.5,161.5C 499.5,170.5 499.5,179.5 499.5,188.5C 479.869,265.357 460.369,342.357 441,419.5C 406.948,394.077 369.114,376.41 327.5,366.5C 327.5,407.167 327.5,447.833 327.5,488.5C 311.658,488.83 295.991,488.496 280.5,487.5C 281.598,486.399 281.765,485.066 281,483.5C 278.749,482.588 276.583,481.588 274.5,480.5C 273.209,480.737 272.209,480.404 271.5,479.5C 269.236,480.219 266.903,480.552 264.5,480.5C 262.167,480.5 259.833,480.5 257.5,480.5C 257.5,480.167 257.5,479.833 257.5,479.5C 265.071,479.737 267.904,476.07 266,468.5C 264.89,470.037 263.39,470.703 261.5,470.5C 261.338,468.473 261.505,466.473 262,464.5C 262.519,463.484 263.353,462.818 264.5,462.5C 275.506,466.499 286.506,466.499 297.5,462.5C 298.107,462.624 298.44,462.957 298.5,463.5C 299.314,469.098 301.481,474.098 305,478.5C 307.466,479.788 309.966,479.788 312.5,478.5C 313.287,479.242 313.953,480.075 314.5,481C 309.27,482.036 304.27,481.536 299.5,479.5C 298.692,479.808 298.025,480.308 297.5,481C 299.175,481.985 300.842,482.819 302.5,483.5C 300.801,483.66 299.134,483.494 297.5,483C 295.989,480.218 296.822,478.385 300,477.5C 301.152,479.512 302.318,479.678 303.5,478C 300.21,474.633 297.377,475.133 295,479.5C 293.301,478.594 291.467,478.261 289.5,478.5C 289.275,482.056 290.108,482.39 292,479.5C 294.188,480.059 294.854,481.393 294,483.5C 293.549,481.071 292.715,480.904 291.5,483C 291.833,483.333 292.167,483.667 292.5,484C 290.432,484.687 288.432,484.52 286.5,483.5C 285.304,483.846 285.304,484.346 286.5,485C 298.47,486.205 310.47,486.705 322.5,486.5C 322.667,473.496 322.5,460.496 322,447.5C 321.667,448.167 321.333,448.833 321,449.5C 320.292,448.619 319.458,447.953 318.5,447.5C 317.123,443.06 318.289,442.394 322,445.5C 322.772,445.355 323.439,445.022 324,444.5C 323.513,442.956 323.013,441.29 322.5,439.5C 323.368,436.673 323.368,433.673 322.5,430.5C 322.933,416.912 322.933,403.246 322.5,389.5C 322.543,385.107 322.043,384.774 321,388.5C 320.826,393.351 320.326,398.018 319.5,402.5C 319.167,401.167 318.833,399.833 318.5,398.5C 318.5,394.5 318.5,390.5 318.5,386.5C 318.427,384.973 319.094,383.973 320.5,383.5C 321.833,382.833 322.833,381.833 323.5,380.5C 323.425,377.794 323.092,375.127 322.5,372.5C 325.999,372.741 326.332,371.908 323.5,370C 322.5,369.333 321.5,369.333 320.5,370C 319.777,372.018 318.777,373.852 317.5,375.5C 316.662,375.158 316.328,374.492 316.5,373.5C 317.5,371.5 318.5,369.5 319.5,367.5C 319.328,366.508 319.662,365.842 320.5,365.5C 321.117,365.389 321.617,365.056 322,364.5C 322.499,359.845 322.666,355.179 322.5,350.5C 322.5,343.5 322.5,336.5 322.5,329.5C 314.5,329.5 306.5,329.5 298.5,329.5C 293.821,329.334 289.155,329.501 284.5,330C 284.833,330.333 285.167,330.667 285.5,331C 284.29,332.039 283.29,333.206 282.5,334.5C 280.883,335.038 279.216,335.371 277.5,335.5C 276.833,335.5 276.5,335.167 276.5,334.5C 278.148,333.223 279.982,332.223 282,331.5C 282.722,329.339 282.055,327.672 280,326.5C 277.175,328.188 274.009,329.021 270.5,329C 259.172,329.5 247.838,329.667 236.5,329.5C 232.251,329.308 228.251,328.308 224.5,326.5C 222.717,328.023 222.051,330.023 222.5,332.5C 224.973,332.799 227.14,333.799 229,335.5C 229.765,335.43 230.265,335.097 230.5,334.5C 232.698,334.409 233.031,335.075 231.5,336.5C 231.5,337.167 231.167,337.5 230.5,337.5C 227.14,336.377 223.807,335.043 220.5,333.5C 220.047,332.542 219.381,331.708 218.5,331C 218.833,330.667 219.167,330.333 219.5,330C 214.845,329.501 210.179,329.334 205.5,329.5C 197.5,329.5 189.5,329.5 181.5,329.5C 181.5,338.833 181.5,348.167 181.5,357.5C 181.335,360.518 181.502,363.518 182,366.5C 182.383,365.944 182.883,365.611 183.5,365.5C 184.906,365.973 185.573,366.973 185.5,368.5C 186.167,370.167 186.833,371.833 187.5,373.5C 187.5,374.167 187.5,374.833 187.5,375.5C 185.366,374.297 184.032,372.463 183.5,370C 182.5,369.333 181.5,369.333 180.5,370C 181.501,373.162 181.501,376.662 180.5,380.5C 181.242,382.35 182.242,383.016 183.5,382.5C 184.552,382.351 185.552,382.517 186.5,383C 185.086,384.993 184.086,387.16 183.5,389.5C 181.955,388.77 181.122,387.437 181,385.5C 180.5,396.495 180.333,407.495 180.5,418.5C 179.5,420.5 178.5,422.5 177.5,424.5C 177.143,404.108 176.143,383.774 174.5,363.5C 175.473,361.052 175.806,358.385 175.5,355.5C 140.744,359.354 107.744,369.187 76.5,385C 75.365,385.749 74.365,385.583 73.5,384.5C 52.6933,302.94 32.36,221.273 12.5,139.5C 20.5078,138.275 28.5078,137.942 36.5,138.5C 37.5663,142.01 38.5663,145.51 39.5,149C 35.2128,150.153 30.8795,150.987 26.5,151.5C 45.0264,225.272 64.0264,298.938 83.5,372.5C 112.795,359.506 143.462,352.506 175.5,351.5C 175.5,348.167 175.5,344.833 175.5,341.5C 147.018,340.43 119.518,345.097 93,355.5C 92.0546,355.095 91.3879,354.428 91,353.5C 71.6369,272.381 51.8036,191.381 31.5,110.5C 41.0124,108.249 50.6791,107.249 60.5,107.5C 61.1667,111.5 61.8333,115.5 62.5,119.5C 57.0297,119.246 51.6964,119.913 46.5,121.5C 64.4987,194.828 82.4987,268.162 100.5,341.5C 125.318,336.928 150.318,335.595 175.5,337.5C 176.483,333.702 176.817,329.702 176.5,325.5C 173.833,325.5 171.167,325.5 168.5,325.5C 149.735,324.934 131.069,325.934 112.5,328.5C 94.1616,247.478 75.6616,166.478 57,85.5C 56.3333,83.8333 56.3333,82.1667 57,80.5C 71.7267,78.5687 86.56,78.0687 101.5,79C 123.945,80.9458 145.945,85.1125 167.5,91.5 Z"/></g>
<g><path style="opacity:1" fill="#010000" d="M 161.5,97.5 C 151.337,108.498 141.337,119.664 131.5,131C 170.666,178.497 197.833,232.33 213,292.5C 238.092,293.495 263.259,293.828 288.5,293.5C 289.681,286.451 291.181,279.451 293,272.5C 308.719,219.89 333.219,172.057 366.5,129C 357.348,118.015 347.682,107.515 337.5,97.5C 357.574,91.1953 378.241,88.6953 399.5,90C 409.157,91.0176 418.824,91.8509 428.5,92.5C 411.473,167.597 393.806,242.597 375.5,317.5C 359.369,315.659 343.369,316.325 327.5,319.5C 327.592,313.438 327.425,307.104 327,300.5C 326.5,300 326,299.5 325.5,299C 276.5,298.333 227.5,298.333 178.5,299C 178,299.5 177.5,300 177,300.5C 176.333,306.5 176.333,312.5 177,318.5C 177.383,319.056 177.883,319.389 178.5,319.5C 178.5,319.833 178.5,320.167 178.5,320.5C 160.105,317.273 141.605,315.606 123,315.5C 105.272,241.463 87.439,167.463 69.5,93.5C 100.616,87.3183 131.283,88.6517 161.5,97.5 Z"/></g>
<g><path style="opacity:1" fill="#d3a956" d="M 170.5,364.5 C 171.492,364.328 172.158,364.662 172.5,365.5C 130.481,375.596 92.3139,393.596 58,419.5C 38.1608,342.808 18.6608,266.142 -0.5,189.5C -0.5,179.833 -0.5,170.167 -0.5,160.5C 4.51159,160.08 9.51159,159.913 14.5,160C 16.0462,164.019 17.0462,168.185 17.5,172.5C 14.2139,173.207 10.8806,173.54 7.5,173.5C 26.6818,249.56 46.1818,325.56 66,401.5C 98.6018,382.91 133.435,370.577 170.5,364.5 Z"/></g>
<g><path style="opacity:1" fill="#010000" d="M 499.5,188.5 C 499.5,292.167 499.5,395.833 499.5,499.5C 332.833,499.5 166.167,499.5 -0.5,499.5C -0.5,396.167 -0.5,292.833 -0.5,189.5C 18.6608,266.142 38.1608,342.808 58,419.5C 92.3139,393.596 130.481,375.596 172.5,365.5C 173.5,365.5 174.5,365.5 175.5,365.5C 175.333,386.169 175.5,406.836 176,427.5C 176.513,426.473 177.013,425.473 177.5,424.5C 178.5,422.5 179.5,420.5 180.5,418.5C 181.328,412.013 181.828,405.346 182,398.5C 182.494,400.134 182.66,401.801 182.5,403.5C 182.334,407.846 182.501,412.179 183,416.5C 183.667,415.833 184.333,415.167 185,414.5C 185.762,410.413 185.596,406.413 184.5,402.5C 183.627,398.232 183.294,393.898 183.5,389.5C 184.086,387.16 185.086,384.993 186.5,383C 185.552,382.517 184.552,382.351 183.5,382.5C 182.588,381.262 182.421,379.928 183,378.5C 183.368,379.91 184.201,380.91 185.5,381.5C 188.133,381.309 190.466,379.976 192.5,377.5C 191.64,375.069 189.973,373.736 187.5,373.5C 186.833,371.833 186.167,370.167 185.5,368.5C 188.177,371.336 191.51,372.836 195.5,373C 194.663,374.011 194.33,375.178 194.5,376.5C 198.309,376.013 202.142,375.679 206,375.5C 213.344,375.962 220.511,377.295 227.5,379.5C 229.1,379.449 230.6,379.116 232,378.5C 227.736,386.718 224.236,395.385 221.5,404.5C 225.325,405.074 228.991,406.241 232.5,408C 234.142,413.723 231.809,416.723 225.5,417C 221.833,417.333 218.167,417.667 214.5,418C 213.084,420.835 211.417,423.502 209.5,426C 217.484,423.369 225.15,424.369 232.5,429C 240.858,437.043 241.691,445.876 235,455.5C 226.072,463.528 215.572,467.194 203.5,466.5C 202.872,473.771 199.206,478.104 192.5,479.5C 192.5,479.167 192.5,478.833 192.5,478.5C 194.665,478.884 196.332,478.217 197.5,476.5C 197.043,475.702 196.376,475.369 195.5,475.5C 194.833,475.5 194.5,475.167 194.5,474.5C 195.167,474.5 195.833,474.5 196.5,474.5C 200.784,473.615 202.284,470.949 201,466.5C 198.167,465.13 195.5,465.464 193,467.5C 192.517,468.448 192.351,469.448 192.5,470.5C 192.167,470.5 191.833,470.5 191.5,470.5C 190.811,469.226 189.977,469.226 189,470.5C 188.51,471.793 188.343,473.127 188.5,474.5C 187.387,473.054 187.22,471.387 188,469.5C 190.309,468.025 192.476,466.358 194.5,464.5C 194.043,463.702 193.376,463.369 192.5,463.5C 191.791,462.596 190.791,462.263 189.5,462.5C 189.158,461.662 188.492,461.328 187.5,461.5C 186.122,460.766 184.622,460.099 183,459.5C 181.855,460.636 180.688,461.636 179.5,462.5C 178.206,463.29 177.039,464.29 176,465.5C 175.5,473.159 175.334,480.826 175.5,488.5C 226.167,489.833 276.833,489.833 327.5,488.5C 327.5,447.833 327.5,407.167 327.5,366.5C 369.114,376.41 406.948,394.077 441,419.5C 460.369,342.357 479.869,265.357 499.5,188.5 Z"/></g>
<g><path style="opacity:1" fill="#392d17" d="M 178.5,319.5 C 224.763,320.328 271.096,320.828 317.5,321C 316.099,321.41 314.766,321.91 313.5,322.5C 270.833,321.167 228.167,321.167 185.5,322.5C 182.933,322.279 180.599,321.612 178.5,320.5C 178.5,320.167 178.5,319.833 178.5,319.5 Z"/></g>
<g><path style="opacity:1" fill="#000000" d="M 185.5,322.5 C 228.167,321.167 270.833,321.167 313.5,322.5C 270.833,323.833 228.167,323.833 185.5,322.5 Z"/></g>
<g><path style="opacity:1" fill="#8c6f39" d="M 168.5,325.5 C 171.167,325.5 173.833,325.5 176.5,325.5C 176.817,329.702 176.483,333.702 175.5,337.5C 175.5,333.833 175.5,330.167 175.5,326.5C 172.941,326.802 170.607,326.468 168.5,325.5 Z"/></g>
<g><path style="opacity:1" fill="#030201" d="M 205.5,329.5 C 205.158,330.338 204.492,330.672 203.5,330.5C 196.5,330.5 189.5,330.5 182.5,330.5C 182.5,337.167 182.5,343.833 182.5,350.5C 182.5,350.833 182.5,351.167 182.5,351.5C 182.795,353.735 182.461,355.735 181.5,357.5C 181.5,348.167 181.5,338.833 181.5,329.5C 189.5,329.5 197.5,329.5 205.5,329.5 Z"/></g>
<g><path style="opacity:1" fill="#493a1f" d="M 205.5,329.5 C 210.179,329.334 214.845,329.501 219.5,330C 219.167,330.333 218.833,330.667 218.5,331C 219.381,331.708 220.047,332.542 220.5,333.5C 218.745,332.928 217.078,332.094 215.5,331C 213.833,330.333 212.167,330.333 210.5,331C 211.863,333.129 211.529,333.629 209.5,332.5C 208.479,333.002 208.312,333.668 209,334.5C 210.667,335.833 212.333,335.833 214,334.5C 214.667,335.167 214.667,335.833 214,336.5C 211.502,336.73 209.002,337.063 206.5,337.5C 205.652,335.907 204.319,334.74 202.5,334C 203.094,333.536 203.761,333.369 204.5,333.5C 205.239,333.631 205.906,333.464 206.5,333C 205.429,332.148 204.429,331.315 203.5,330.5C 204.492,330.672 205.158,330.338 205.5,329.5 Z"/></g>
<g><path style="opacity:1" fill="#1a150c" d="M 276.5,334.5 C 275.833,333.167 275.167,331.833 274.5,330.5C 272.662,329.322 270.995,329.655 269.5,331.5C 258.57,331.76 247.57,331.426 236.5,330.5C 236.5,330.167 236.5,329.833 236.5,329.5C 247.838,329.667 259.172,329.5 270.5,329C 274.009,329.021 277.175,328.188 280,326.5C 282.055,327.672 282.722,329.339 282,331.5C 279.982,332.223 278.148,333.223 276.5,334.5 Z"/></g>
<g><path style="opacity:1" fill="#000000" d="M 298.5,329.5 C 306.5,329.5 314.5,329.5 322.5,329.5C 322.5,336.5 322.5,343.5 322.5,350.5C 322.167,350.5 321.833,350.5 321.5,350.5C 321.5,343.833 321.5,337.167 321.5,330.5C 314.833,330.5 308.167,330.5 301.5,330.5C 300.209,330.737 299.209,330.404 298.5,329.5 Z"/></g>
<g><path style="opacity:1" fill="#d5aa57" d="M 203.5,330.5 C 204.429,331.315 205.429,332.148 206.5,333C 205.906,333.464 205.239,333.631 204.5,333.5C 203.626,332.475 202.459,331.808 201,331.5C 195.687,332.098 190.521,332.765 185.5,333.5C 185.017,339.264 184.017,344.931 182.5,350.5C 182.5,343.833 182.5,337.167 182.5,330.5C 189.5,330.5 196.5,330.5 203.5,330.5 Z"/></g>
<g><path style="opacity:1" fill="#d6ab58" d="M 220.5,333.5 C 223.336,336.177 224.836,339.51 225,343.5C 227.405,342.726 229.905,342.226 232.5,342C 230.266,341.031 228.266,339.698 226.5,338C 227.793,337.51 229.127,337.343 230.5,337.5C 231.167,337.5 231.5,337.167 231.5,336.5C 232.756,336.539 233.756,336.039 234.5,335C 246.167,334.333 257.833,334.333 269.5,335C 271.808,336.867 274.475,337.867 277.5,338C 275.734,339.698 273.734,341.031 271.5,342C 274.095,342.226 276.595,342.726 279,343.5C 279.117,340.037 280.284,337.037 282.5,334.5C 284.977,332.551 287.81,331.218 291,330.5C 291.833,330.667 292.667,330.833 293.5,331C 292.289,331.893 292.289,332.726 293.5,333.5C 294.396,332.494 295.062,332.494 295.5,333.5C 294.034,335.657 292.2,335.99 290,334.5C 289.333,335.167 289.333,335.833 290,336.5C 292.538,337.049 295.038,337.382 297.5,337.5C 298.635,339.213 300.302,339.88 302.5,339.5C 302.5,340.5 302.5,341.5 302.5,342.5C 301.883,342.611 301.383,342.944 301,343.5C 299.989,346.857 299.323,350.191 299,353.5C 303.244,352.353 307.411,351.02 311.5,349.5C 311.833,349.5 312.167,349.5 312.5,349.5C 312.343,350.873 312.51,352.207 313,353.5C 315.593,355.7 316.26,358.367 315,361.5C 315.718,362.451 316.551,362.617 317.5,362C 316.62,360.644 316.286,359.144 316.5,357.5C 318.499,356.143 319.665,356.81 320,359.5C 320.333,359.167 320.667,358.833 321,358.5C 321.556,360.885 321.39,363.218 320.5,365.5C 319.662,365.842 319.328,366.508 319.5,367.5C 316.673,370.914 313.006,372.747 308.5,373C 309.113,375.147 309.779,377.314 310.5,379.5C 311.32,377.681 312.32,376.014 313.5,374.5C 314.264,376.74 315.098,379.073 316,381.5C 317.622,382.099 319.122,382.766 320.5,383.5C 319.094,383.973 318.427,384.973 318.5,386.5C 317.918,389.313 316.918,391.98 315.5,394.5C 308.069,383.772 297.735,377.606 284.5,376C 272.114,374.263 260.781,376.93 250.5,384C 243.086,389.884 241.252,397.051 245,405.5C 250.862,409.748 256.195,409.081 261,403.5C 262.187,401.956 262.52,400.289 262,398.5C 256.812,399.98 254.812,397.98 256,392.5C 259.018,387.155 263.518,383.655 269.5,382C 290.583,379.131 304.083,387.964 310,408.5C 313.437,422.693 311.437,436.026 304,448.5C 294.785,459.803 283.452,462.803 270,457.5C 269.333,456.833 269.333,456.167 270,455.5C 275.139,452.013 280.639,449.18 286.5,447C 284.513,445.681 283.346,443.848 283,441.5C 282.501,435.509 282.334,429.509 282.5,423.5C 289.514,424.005 292.68,427.672 292,434.5C 291.1,435.77 289.934,436.77 288.5,437.5C 291.612,441.786 295.612,442.62 300.5,440C 304.083,432.914 302.749,426.914 296.5,422C 292.108,419.591 287.442,418.091 282.5,417.5C 282.539,406.556 282.539,395.889 282.5,385.5C 277.987,388.756 272.987,390.922 267.5,392C 270.268,393.762 271.768,396.262 272,399.5C 272.499,405.491 272.666,411.491 272.5,417.5C 253.409,421.061 246.575,432.061 252,450.5C 253.955,454.618 256.788,457.952 260.5,460.5C 258.667,463.5 256.833,466.5 255,469.5C 254.333,472.167 254.333,474.833 255,477.5C 255.708,478.381 256.542,479.047 257.5,479.5C 257.5,479.833 257.5,480.167 257.5,480.5C 246.614,481.106 235.947,480.273 225.5,478C 227.108,475.391 229.441,474.058 232.5,474C 229.563,473.9 226.896,473.067 224.5,471.5C 224.167,475.83 222.5,479.496 219.5,482.5C 217.516,483.156 215.516,483.822 213.5,484.5C 211.912,483.99 210.745,482.99 210,481.5C 208.753,483.881 208.42,483.547 209,480.5C 210.399,479.773 211.899,479.273 213.5,479C 210.975,478.856 208.642,478.69 206.5,478.5C 206.768,480.099 206.434,481.432 205.5,482.5C 205.506,479.452 204.506,478.952 202.5,481C 197.833,481.667 193.167,481.667 188.5,481C 189.056,480.617 189.389,480.117 189.5,479.5C 190.5,478.167 191.5,478.167 192.5,479.5C 199.206,478.104 202.872,473.771 203.5,466.5C 215.572,467.194 226.072,463.528 235,455.5C 241.691,445.876 240.858,437.043 232.5,429C 225.15,424.369 217.484,423.369 209.5,426C 211.417,423.502 213.084,420.835 214.5,418C 218.167,417.667 221.833,417.333 225.5,417C 231.809,416.723 234.142,413.723 232.5,408C 228.991,406.241 225.325,405.074 221.5,404.5C 224.236,395.385 227.736,386.718 232,378.5C 230.6,379.116 229.1,379.449 227.5,379.5C 220.511,377.295 213.344,375.962 206,375.5C 202.142,375.679 198.309,376.013 194.5,376.5C 194.33,375.178 194.663,374.011 195.5,373C 191.51,372.836 188.177,371.336 185.5,368.5C 185.573,366.973 184.906,365.973 183.5,365.5C 182.833,363.181 182.666,360.847 183,358.5C 185.129,359.863 185.629,359.529 184.5,357.5C 185.002,356.479 185.668,356.312 186.5,357C 187.833,358.667 187.833,360.333 186.5,362C 187.167,362.667 187.833,362.667 188.5,362C 188.73,359.502 189.063,357.002 189.5,354.5C 190.935,353.21 191.935,351.544 192.5,349.5C 195.276,351.13 198.276,351.797 201.5,351.5C 198.825,350.645 196.158,349.478 193.5,348C 192.748,347.329 192.414,346.496 192.5,345.5C 193.222,345.082 193.722,344.416 194,343.5C 194.965,345.26 196.132,345.594 197.5,344.5C 197.023,343.522 196.357,342.689 195.5,342C 196.416,341.722 197.082,341.222 197.5,340.5C 199.017,340.511 200.184,341.177 201,342.5C 201.667,344.5 202.333,346.5 203,348.5C 203.725,345.623 203.225,342.957 201.5,340.5C 203.544,339.935 205.21,338.935 206.5,337.5C 209.002,337.063 211.502,336.73 214,336.5C 214.667,335.833 214.667,335.167 214,334.5C 212.333,335.833 210.667,335.833 209,334.5C 208.312,333.668 208.479,333.002 209.5,332.5C 211.529,333.629 211.863,333.129 210.5,331C 212.167,330.333 213.833,330.333 215.5,331C 217.078,332.094 218.745,332.928 220.5,333.5 Z"/></g>
<g><path style="opacity:1" fill="#d9ad59" d="M 301.5,331.5 C 301.5,331.167 301.5,330.833 301.5,330.5C 308.167,330.5 314.833,330.5 321.5,330.5C 321.5,337.167 321.5,343.833 321.5,350.5C 319.983,344.931 318.983,339.264 318.5,333.5C 312.984,332.695 307.318,332.028 301.5,331.5 Z"/></g>
<g><path style="opacity:1" fill="#4b3c20" d="M 298.5,329.5 C 299.209,330.404 300.209,330.737 301.5,330.5C 301.5,330.833 301.5,331.167 301.5,331.5C 296.342,332.484 296.342,333.317 301.5,334C 299.681,334.74 298.348,335.907 297.5,337.5C 295.038,337.382 292.538,337.049 290,336.5C 289.333,335.833 289.333,335.167 290,334.5C 292.2,335.99 294.034,335.657 295.5,333.5C 295.062,332.494 294.396,332.494 293.5,333.5C 292.289,332.726 292.289,331.893 293.5,331C 292.667,330.833 291.833,330.667 291,330.5C 287.81,331.218 284.977,332.551 282.5,334.5C 283.29,333.206 284.29,332.039 285.5,331C 285.167,330.667 284.833,330.333 284.5,330C 289.155,329.501 293.821,329.334 298.5,329.5 Z"/></g>
<g><path style="opacity:1" fill="#2e2515" d="M 236.5,329.5 C 236.5,329.833 236.5,330.167 236.5,330.5C 236.062,330.435 235.728,330.601 235.5,331C 236.672,331.419 237.672,332.085 238.5,333C 243,333.167 247.5,333.333 252,333.5C 257.617,333.084 263.117,333.084 268.5,333.5C 269.298,333.043 269.631,332.376 269.5,331.5C 270.995,329.655 272.662,329.322 274.5,330.5C 273.027,331.072 271.693,331.905 270.5,333C 271.449,333.617 272.282,333.451 273,332.5C 273.456,333.744 272.956,334.577 271.5,335C 273.565,336.542 275.565,336.709 277.5,335.5C 279.216,335.371 280.883,335.038 282.5,334.5C 280.284,337.037 279.117,340.037 279,343.5C 276.595,342.726 274.095,342.226 271.5,342C 273.734,341.031 275.734,339.698 277.5,338C 274.475,337.867 271.808,336.867 269.5,335C 257.833,334.333 246.167,334.333 234.5,335C 233.756,336.039 232.756,336.539 231.5,336.5C 233.031,335.075 232.698,334.409 230.5,334.5C 230.265,335.097 229.765,335.43 229,335.5C 227.14,333.799 224.973,332.799 222.5,332.5C 222.051,330.023 222.717,328.023 224.5,326.5C 228.251,328.308 232.251,329.308 236.5,329.5 Z"/></g>
<g><path style="opacity:1" fill="#8c7039" d="M 230.5,334.5 C 228.524,333.573 228.191,332.24 229.5,330.5C 231.135,331.33 232.802,331.497 234.5,331C 233.78,333.122 232.613,333.622 231,332.5C 230.536,333.094 230.369,333.761 230.5,334.5 Z"/></g>
<g><path style="opacity:1" fill="#d4a957" d="M 236.5,330.5 C 247.57,331.426 258.57,331.76 269.5,331.5C 269.631,332.376 269.298,333.043 268.5,333.5C 263.117,333.084 257.617,333.084 252,333.5C 247.5,333.333 243,333.167 238.5,333C 237.672,332.085 236.672,331.419 235.5,331C 235.728,330.601 236.062,330.435 236.5,330.5 Z"/></g>
<g><path style="opacity:1" fill="#8a6f39" d="M 274.5,330.5 C 275.167,331.833 275.833,333.167 276.5,334.5C 276.5,335.167 276.833,335.5 277.5,335.5C 275.565,336.709 273.565,336.542 271.5,335C 272.956,334.577 273.456,333.744 273,332.5C 272.282,333.451 271.449,333.617 270.5,333C 271.693,331.905 273.027,331.072 274.5,330.5 Z"/></g>
<g><path style="opacity:1" fill="#100c06" d="M 318.5,333.5 C 318.5,334.5 318.5,335.5 318.5,336.5C 314.204,339.42 313.204,338.754 315.5,334.5C 316.325,333.614 317.325,333.281 318.5,333.5 Z"/></g>
<g><path style="opacity:1" fill="#a98745" d="M 204.5,333.5 C 203.761,333.369 203.094,333.536 202.5,334C 204.319,334.74 205.652,335.907 206.5,337.5C 205.305,337.678 204.138,338.011 203,338.5C 201.108,335.61 200.275,335.944 200.5,339.5C 199.209,339.263 198.209,339.596 197.5,340.5C 196.25,340.423 195.417,339.756 195,338.5C 194.667,339.167 194.333,339.833 194,340.5C 192.705,339.159 192.205,337.826 192.5,336.5C 191.611,338.007 190.611,339.34 189.5,340.5C 187.058,342.139 186.891,344.139 189,346.5C 189.671,347.252 190.504,347.586 191.5,347.5C 190.737,348.268 189.737,348.768 188.5,349C 189.428,349.388 190.095,350.055 190.5,351C 190.011,352.138 189.678,353.305 189.5,354.5C 187.907,353.652 186.74,352.319 186,350.5C 185.853,355.479 184.687,355.812 182.5,351.5C 182.5,351.167 182.5,350.833 182.5,350.5C 184.017,344.931 185.017,339.264 185.5,333.5C 190.521,332.765 195.687,332.098 201,331.5C 202.459,331.808 203.626,332.475 204.5,333.5 Z"/></g>
<g><path style="opacity:1" fill="#0a0804" d="M 185.5,333.5 C 187.973,333.736 189.64,335.069 190.5,337.5C 189.5,338.833 188.5,338.833 187.5,337.5C 186.147,336.476 185.48,335.143 185.5,333.5 Z"/></g>
<g><path style="opacity:1" fill="#b28e49" d="M 301.5,331.5 C 307.318,332.028 312.984,332.695 318.5,333.5C 317.325,333.281 316.325,333.614 315.5,334.5C 313.204,338.754 314.204,339.42 318.5,336.5C 319.128,342.798 318.294,348.798 316,354.5C 314.374,353.045 313.208,351.378 312.5,349.5C 312.167,349.5 311.833,349.5 311.5,349.5C 312.833,348.067 314.333,346.733 316,345.5C 316.765,343.934 316.598,342.601 315.5,341.5C 314.554,340.069 313.388,338.736 312,337.5C 311.418,340.668 310.418,341.001 309,338.5C 308.583,339.756 307.75,340.423 306.5,340.5C 306.906,338.891 306.906,337.557 306.5,336.5C 305.201,337.09 304.368,338.09 304,339.5C 303.667,338.5 303.333,337.5 303,336.5C 302.612,337.428 301.945,338.095 301,338.5C 299.862,338.011 298.695,337.678 297.5,337.5C 298.348,335.907 299.681,334.74 301.5,334C 296.342,333.317 296.342,332.484 301.5,331.5 Z"/></g>
<g><path style="opacity:1" fill="#1b160d" d="M 220.5,333.5 C 223.807,335.043 227.14,336.377 230.5,337.5C 229.127,337.343 227.793,337.51 226.5,338C 228.266,339.698 230.266,341.031 232.5,342C 229.905,342.226 227.405,342.726 225,343.5C 224.836,339.51 223.336,336.177 220.5,333.5 Z"/></g>
<g><path style="opacity:1" fill="#342a18" d="M 306.5,340.5 C 304.938,340.733 303.605,341.4 302.5,342.5C 302.5,341.5 302.5,340.5 302.5,339.5C 300.302,339.88 298.635,339.213 297.5,337.5C 298.695,337.678 299.862,338.011 301,338.5C 301.945,338.095 302.612,337.428 303,336.5C 303.333,337.5 303.667,338.5 304,339.5C 304.368,338.09 305.201,337.09 306.5,336.5C 306.906,337.557 306.906,338.891 306.5,340.5 Z"/></g>
<g><path style="opacity:1" fill="#1e190e" d="M 197.5,340.5 C 197.082,341.222 196.416,341.722 195.5,342C 196.357,342.689 197.023,343.522 197.5,344.5C 196.132,345.594 194.965,345.26 194,343.5C 193.722,344.416 193.222,345.082 192.5,345.5C 192.423,344.25 191.756,343.417 190.5,343C 192.857,341.78 192.524,340.947 189.5,340.5C 190.611,339.34 191.611,338.007 192.5,336.5C 192.205,337.826 192.705,339.159 194,340.5C 194.333,339.833 194.667,339.167 195,338.5C 195.417,339.756 196.25,340.423 197.5,340.5 Z"/></g>
<g><path style="opacity:1" fill="#312817" d="M 206.5,337.5 C 205.21,338.935 203.544,339.935 201.5,340.5C 203.225,342.957 203.725,345.623 203,348.5C 202.333,346.5 201.667,344.5 201,342.5C 200.184,341.177 199.017,340.511 197.5,340.5C 198.209,339.596 199.209,339.263 200.5,339.5C 200.275,335.944 201.108,335.61 203,338.5C 204.138,338.011 205.305,337.678 206.5,337.5 Z"/></g>
<g><path style="opacity:1" fill="#221b10" d="M 315.5,341.5 C 314.015,340.065 312.682,340.232 311.5,342C 312.167,342.333 312.833,342.667 313.5,343C 312.244,343.417 311.577,344.25 311.5,345.5C 310.778,345.082 310.278,344.416 310,343.5C 308.887,345.329 307.387,346.163 305.5,346C 306.833,345 306.833,344 305.5,343C 306.5,342.667 307.5,342.333 308.5,342C 307.584,341.722 306.918,341.222 306.5,340.5C 307.75,340.423 308.583,339.756 309,338.5C 310.418,341.001 311.418,340.668 312,337.5C 313.388,338.736 314.554,340.069 315.5,341.5 Z"/></g>
<g><path style="opacity:1" fill="#c09a4f" d="M 306.5,340.5 C 306.918,341.222 307.584,341.722 308.5,342C 307.5,342.333 306.5,342.667 305.5,343C 306.833,344 306.833,345 305.5,346C 307.387,346.163 308.887,345.329 310,343.5C 310.278,344.416 310.778,345.082 311.5,345.5C 311.489,347.017 310.823,348.184 309.5,349C 306.883,349.822 304.216,350.322 301.5,350.5C 301.833,347.833 302.167,345.167 302.5,342.5C 303.605,341.4 304.938,340.733 306.5,340.5 Z"/></g>
<g><path style="opacity:1" fill="#7e6434" d="M 189.5,340.5 C 192.524,340.947 192.857,341.78 190.5,343C 191.756,343.417 192.423,344.25 192.5,345.5C 191.662,345.842 191.328,346.508 191.5,347.5C 190.504,347.586 189.671,347.252 189,346.5C 186.891,344.139 187.058,342.139 189.5,340.5 Z"/></g>
<g><path style="opacity:1" fill="#b28e49" d="M 315.5,341.5 C 315.833,344.5 314.5,345.833 311.5,345.5C 311.577,344.25 312.244,343.417 313.5,343C 312.833,342.667 312.167,342.333 311.5,342C 312.682,340.232 314.015,340.065 315.5,341.5 Z"/></g>
<g><path style="opacity:1" fill="#6a542c" d="M 318.5,333.5 C 318.983,339.264 319.983,344.931 321.5,350.5C 321.102,352.711 320.936,355.044 321,357.5C 319.695,353.877 318.195,353.877 316.5,357.5C 316.286,359.144 316.62,360.644 317.5,362C 316.551,362.617 315.718,362.451 315,361.5C 316.26,358.367 315.593,355.7 313,353.5C 312.51,352.207 312.343,350.873 312.5,349.5C 313.208,351.378 314.374,353.045 316,354.5C 318.294,348.798 319.128,342.798 318.5,336.5C 318.5,335.5 318.5,334.5 318.5,333.5 Z"/></g>
<g><path style="opacity:1" fill="#312817" d="M 192.5,345.5 C 192.414,346.496 192.748,347.329 193.5,348C 196.158,349.478 198.825,350.645 201.5,351.5C 198.276,351.797 195.276,351.13 192.5,349.5C 191.935,351.544 190.935,353.21 189.5,354.5C 189.678,353.305 190.011,352.138 190.5,351C 190.095,350.055 189.428,349.388 188.5,349C 189.737,348.768 190.737,348.268 191.5,347.5C 191.328,346.508 191.662,345.842 192.5,345.5 Z"/></g>
<g><path style="opacity:1" fill="#231c11" d="M 201.5,351.5 C 202.75,351.423 203.583,350.756 204,349.5C 205.936,353.732 205.103,354.398 201.5,351.5 Z"/></g>
<g><path style="opacity:1" fill="#372c19" d="M 315.5,341.5 C 316.598,342.601 316.765,343.934 316,345.5C 314.333,346.733 312.833,348.067 311.5,349.5C 307.411,351.02 303.244,352.353 299,353.5C 299.323,350.191 299.989,346.857 301,343.5C 301.383,342.944 301.883,342.611 302.5,342.5C 302.167,345.167 301.833,347.833 301.5,350.5C 304.216,350.322 306.883,349.822 309.5,349C 310.823,348.184 311.489,347.017 311.5,345.5C 314.5,345.833 315.833,344.5 315.5,341.5 Z"/></g>
<g><path style="opacity:1" fill="#322815" d="M 321.5,350.5 C 321.833,350.5 322.167,350.5 322.5,350.5C 322.666,355.179 322.499,359.845 322,364.5C 321.617,365.056 321.117,365.389 320.5,365.5C 321.39,363.218 321.556,360.885 321,358.5C 320.667,358.833 320.333,359.167 320,359.5C 319.665,356.81 318.499,356.143 316.5,357.5C 318.195,353.877 319.695,353.877 321,357.5C 320.936,355.044 321.102,352.711 321.5,350.5 Z"/></g>
<g><path style="opacity:1" fill="#4f3f22" d="M 189.5,354.5 C 189.063,357.002 188.73,359.502 188.5,362C 187.833,362.667 187.167,362.667 186.5,362C 187.833,360.333 187.833,358.667 186.5,357C 185.668,356.312 185.002,356.479 184.5,357.5C 185.629,359.529 185.129,359.863 183,358.5C 182.666,360.847 182.833,363.181 183.5,365.5C 182.883,365.611 182.383,365.944 182,366.5C 181.502,363.518 181.335,360.518 181.5,357.5C 182.461,355.735 182.795,353.735 182.5,351.5C 184.687,355.812 185.853,355.479 186,350.5C 186.74,352.319 187.907,353.652 189.5,354.5 Z"/></g>
<g><path style="opacity:1" fill="#826735" d="M 170.5,364.5 C 171.568,363.566 172.901,363.232 174.5,363.5C 176.143,383.774 177.143,404.108 177.5,424.5C 177.013,425.473 176.513,426.473 176,427.5C 175.5,406.836 175.333,386.169 175.5,365.5C 174.5,365.5 173.5,365.5 172.5,365.5C 172.158,364.662 171.492,364.328 170.5,364.5 Z"/></g>
<g><path style="opacity:1" fill="#1b160d" d="M 187.5,375.5 C 187.649,376.552 187.483,377.552 187,378.5C 183.746,375.64 181.579,376.307 180.5,380.5C 181.501,376.662 181.501,373.162 180.5,370C 181.5,369.333 182.5,369.333 183.5,370C 184.032,372.463 185.366,374.297 187.5,375.5 Z"/></g>
<g><path style="opacity:1" fill="#16120a" d="M 323.5,380.5 C 322.751,379.469 322.085,378.302 321.5,377C 319.942,376.79 318.609,376.29 317.5,375.5C 318.777,373.852 319.777,372.018 320.5,370C 321.5,369.333 322.5,369.333 323.5,370C 326.332,371.908 325.999,372.741 322.5,372.5C 323.092,375.127 323.425,377.794 323.5,380.5 Z"/></g>
<g><path style="opacity:1" fill="#1d170d" d="M 319.5,367.5 C 318.5,369.5 317.5,371.5 316.5,373.5C 315.209,373.263 314.209,373.596 313.5,374.5C 312.32,376.014 311.32,377.681 310.5,379.5C 309.779,377.314 309.113,375.147 308.5,373C 313.006,372.747 316.673,370.914 319.5,367.5 Z"/></g>
<g><path style="opacity:1" fill="#090603" d="M 315.5,394.5 C 316.512,395.872 317.512,397.205 318.5,398.5C 318.833,399.833 319.167,401.167 319.5,402.5C 319.783,403.289 320.283,403.956 321,404.5C 321.174,399.316 321.674,394.316 322.5,389.5C 322.933,403.246 322.933,416.912 322.5,430.5C 321.657,432.487 320.99,434.654 320.5,437C 321.509,437.355 322.176,438.188 322.5,439.5C 323.013,441.29 323.513,442.956 324,444.5C 323.439,445.022 322.772,445.355 322,445.5C 318.289,442.394 317.123,443.06 318.5,447.5C 317.883,447.389 317.383,447.056 317,446.5C 312.406,453.096 306.573,458.262 299.5,462C 300.056,462.383 300.389,462.883 300.5,463.5C 299.833,463.5 299.167,463.5 298.5,463.5C 298.44,462.957 298.107,462.624 297.5,462.5C 286.506,466.499 275.506,466.499 264.5,462.5C 263.353,462.818 262.519,463.484 262,464.5C 261.505,466.473 261.338,468.473 261.5,470.5C 263.39,470.703 264.89,470.037 266,468.5C 267.904,476.07 265.071,479.737 257.5,479.5C 256.542,479.047 255.708,478.381 255,477.5C 254.333,474.833 254.333,472.167 255,469.5C 256.833,466.5 258.667,463.5 260.5,460.5C 256.788,457.952 253.955,454.618 252,450.5C 246.575,432.061 253.409,421.061 272.5,417.5C 272.666,411.491 272.499,405.491 272,399.5C 271.768,396.262 270.268,393.762 267.5,392C 272.987,390.922 277.987,388.756 282.5,385.5C 282.539,395.889 282.539,406.556 282.5,417.5C 287.442,418.091 292.108,419.591 296.5,422C 302.749,426.914 304.083,432.914 300.5,440C 295.612,442.62 291.612,441.786 288.5,437.5C 289.934,436.77 291.1,435.77 292,434.5C 292.68,427.672 289.514,424.005 282.5,423.5C 282.334,429.509 282.501,435.509 283,441.5C 283.346,443.848 284.513,445.681 286.5,447C 280.639,449.18 275.139,452.013 270,455.5C 269.333,456.167 269.333,456.833 270,457.5C 283.452,462.803 294.785,459.803 304,448.5C 311.437,436.026 313.437,422.693 310,408.5C 304.083,387.964 290.583,379.131 269.5,382C 263.518,383.655 259.018,387.155 256,392.5C 254.812,397.98 256.812,399.98 262,398.5C 262.52,400.289 262.187,401.956 261,403.5C 256.195,409.081 250.862,409.748 245,405.5C 241.252,397.051 243.086,389.884 250.5,384C 260.781,376.93 272.114,374.263 284.5,376C 297.735,377.606 308.069,383.772 315.5,394.5 Z"/></g>
<g><path style="opacity:1" fill="#69542b" d="M 313.5,374.5 C 314.209,373.596 315.209,373.263 316.5,373.5C 316.328,374.492 316.662,375.158 317.5,375.5C 318.609,376.29 319.942,376.79 321.5,377C 322.085,378.302 322.751,379.469 323.5,380.5C 322.833,381.833 321.833,382.833 320.5,383.5C 319.122,382.766 317.622,382.099 316,381.5C 315.098,379.073 314.264,376.74 313.5,374.5 Z"/></g>
<g><path style="opacity:1" fill="#90733b" d="M 187.5,373.5 C 189.973,373.736 191.64,375.069 192.5,377.5C 190.466,379.976 188.133,381.309 185.5,381.5C 184.201,380.91 183.368,379.91 183,378.5C 182.421,379.928 182.588,381.262 183.5,382.5C 182.242,383.016 181.242,382.35 180.5,380.5C 181.579,376.307 183.746,375.64 187,378.5C 187.483,377.552 187.649,376.552 187.5,375.5C 187.5,374.833 187.5,374.167 187.5,373.5 Z"/></g>
<g><path style="opacity:1" fill="#d7ac58" d="M 201.5,380.5 C 212.459,377.947 218.126,382.114 218.5,393C 218.617,396.664 217.951,400.164 216.5,403.5C 211.37,404.661 206.203,405.661 201,406.5C 197.103,405.414 195.103,402.747 195,398.5C 193.003,390.854 195.17,384.854 201.5,380.5 Z"/></g>
<g><path style="opacity:1" fill="#4f3f20" d="M 183.5,389.5 C 183.294,393.898 183.627,398.232 184.5,402.5C 183.833,402.833 183.167,403.167 182.5,403.5C 182.66,401.801 182.494,400.134 182,398.5C 181.828,405.346 181.328,412.013 180.5,418.5C 180.333,407.495 180.5,396.495 181,385.5C 181.122,387.437 181.955,388.77 183.5,389.5 Z"/></g>
<g><path style="opacity:1" fill="#5b4925" d="M 318.5,386.5 C 318.5,390.5 318.5,394.5 318.5,398.5C 317.512,397.205 316.512,395.872 315.5,394.5C 316.918,391.98 317.918,389.313 318.5,386.5 Z"/></g>
<g><path style="opacity:1" fill="#7a6132" d="M 322.5,389.5 C 321.674,394.316 321.174,399.316 321,404.5C 320.283,403.956 319.783,403.289 319.5,402.5C 320.326,398.018 320.826,393.351 321,388.5C 322.043,384.774 322.543,385.107 322.5,389.5 Z"/></g>
<g><path style="opacity:1" fill="#cea454" d="M 184.5,402.5 C 185.596,406.413 185.762,410.413 185,414.5C 184.333,415.167 183.667,415.833 183,416.5C 182.501,412.179 182.334,407.846 182.5,403.5C 183.167,403.167 183.833,402.833 184.5,402.5 Z"/></g>
<g><path style="opacity:1" fill="#bb964d" d="M 209.5,408.5 C 211.288,408.215 212.955,408.548 214.5,409.5C 213.754,410.736 213.421,412.07 213.5,413.5C 210.575,413.54 207.909,412.707 205.5,411C 206.858,410.066 208.192,409.232 209.5,408.5 Z"/></g>
<g><path style="opacity:1" fill="#c79f51" d="M 218.5,408.5 C 221.022,408.128 223.022,408.961 224.5,411C 222.679,413.137 220.346,413.97 217.5,413.5C 217.629,411.784 217.962,410.117 218.5,408.5 Z"/></g>
<g><path style="opacity:1" fill="#ae8b47" d="M 186.5,406.5 C 191.336,408.762 191.503,411.095 187,413.5C 186.503,411.19 186.337,408.857 186.5,406.5 Z"/></g>
<g><path style="opacity:1" fill="#d2a856" d="M 189.5,441.5 C 188.833,439.5 188.167,437.5 187.5,435.5C 187.209,426.414 190.876,419.414 198.5,414.5C 202.44,415.855 206.44,417.022 210.5,418C 206.111,426.541 200.778,434.375 194.5,441.5C 193.686,439.234 193.186,436.9 193,434.5C 192.856,437.442 191.689,439.776 189.5,441.5 Z"/></g>
<g><path style="opacity:1" fill="#806634" d="M 269.5,424.5 C 270.209,423.596 271.209,423.263 272.5,423.5C 272.826,431.684 272.492,439.684 271.5,447.5C 272.132,439.427 271.465,431.76 269.5,424.5 Z"/></g>
<g><path style="opacity:1" fill="#d6ab58" d="M 269.5,424.5 C 271.465,431.76 272.132,439.427 271.5,447.5C 269.571,456.692 266.404,457.359 262,449.5C 260.058,443.485 260.058,437.485 262,431.5C 263.715,428.283 266.215,425.95 269.5,424.5 Z"/></g>
<g><path style="opacity:1" fill="#d6ab58" d="M 216.5,430.5 C 221.814,429.74 225.647,431.74 228,436.5C 230.958,448.83 226.458,456.663 214.5,460C 204.754,462.455 196.754,459.789 190.5,452C 195.046,447.123 199.213,441.956 203,436.5C 207.344,441.23 212.177,441.73 217.5,438C 213.88,436.006 213.547,433.506 216.5,430.5 Z"/></g>
<g><path style="opacity:1" fill="#614e28" d="M 322.5,430.5 C 323.368,433.673 323.368,436.673 322.5,439.5C 322.176,438.188 321.509,437.355 320.5,437C 320.99,434.654 321.657,432.487 322.5,430.5 Z"/></g>
<g><path style="opacity:1" fill="#574624" d="M 187.5,435.5 C 188.167,437.5 188.833,439.5 189.5,441.5C 188.791,442.404 187.791,442.737 186.5,442.5C 186.198,439.941 186.532,437.607 187.5,435.5 Z"/></g>
<g><path style="opacity:1" fill="#bf984e" d="M 189.5,443.5 C 190.873,443.343 192.207,443.51 193.5,444C 192,445.5 190.5,447 189,448.5C 186.919,446.443 187.086,444.777 189.5,443.5 Z"/></g>
<g><path style="opacity:1" fill="#d1a756" d="M 318.5,447.5 C 319.379,449.228 320.046,451.061 320.5,453C 320.215,454.89 319.215,456.223 317.5,457C 318.167,457.333 318.833,457.667 319.5,458C 318.072,458.579 316.738,458.412 315.5,457.5C 314.29,459.552 313.29,461.718 312.5,464C 312.502,467.057 313.502,467.724 315.5,466C 313.842,465.275 313.342,464.108 314,462.5C 315.444,460.845 317.278,460.178 319.5,460.5C 319.338,462.527 319.505,464.527 320,466.5C 321.003,464.065 321.503,464.398 321.5,467.5C 320.645,473.134 320.312,478.801 320.5,484.5C 314.31,484.823 308.31,484.49 302.5,483.5C 307.74,482.551 313.073,482.218 318.5,482.5C 318.83,475.468 318.497,468.468 317.5,461.5C 315.199,462.269 315.033,463.269 317,464.5C 317.667,469.167 317.667,473.833 317,478.5C 316.167,477.667 315.333,476.833 314.5,476C 315.833,473.667 315.833,471.333 314.5,469C 310.717,465.048 306.051,463.215 300.5,463.5C 300.389,462.883 300.056,462.383 299.5,462C 306.573,458.262 312.406,453.096 317,446.5C 317.383,447.056 317.883,447.389 318.5,447.5 Z"/></g>
<g><path style="opacity:1" fill="#7e6434" d="M 177.5,450.5 C 176.523,453.287 176.19,456.287 176.5,459.5C 175.357,455.931 175.19,451.597 176,446.5C 176.41,447.901 176.91,449.234 177.5,450.5 Z"/></g>
<g><path style="opacity:1" fill="#cba253" d="M 177.5,450.5 C 178.702,452.392 180.035,454.226 181.5,456C 180.154,457.669 178.487,458.836 176.5,459.5C 176.19,456.287 176.523,453.287 177.5,450.5 Z"/></g>
<g><path style="opacity:1" fill="#5c4a26" d="M 318.5,447.5 C 319.458,447.953 320.292,448.619 321,449.5C 321.333,448.833 321.667,448.167 322,447.5C 322.5,460.496 322.667,473.496 322.5,486.5C 310.47,486.705 298.47,486.205 286.5,485C 285.304,484.346 285.304,483.846 286.5,483.5C 288.432,484.52 290.432,484.687 292.5,484C 292.167,483.667 291.833,483.333 291.5,483C 292.715,480.904 293.549,481.071 294,483.5C 294.854,481.393 294.188,480.059 292,479.5C 290.108,482.39 289.275,482.056 289.5,478.5C 291.467,478.261 293.301,478.594 295,479.5C 297.377,475.133 300.21,474.633 303.5,478C 302.318,479.678 301.152,479.512 300,477.5C 296.822,478.385 295.989,480.218 297.5,483C 299.134,483.494 300.801,483.66 302.5,483.5C 308.31,484.49 314.31,484.823 320.5,484.5C 320.312,478.801 320.645,473.134 321.5,467.5C 321.503,464.398 321.003,464.065 320,466.5C 319.505,464.527 319.338,462.527 319.5,460.5C 317.278,460.178 315.444,460.845 314,462.5C 313.342,464.108 313.842,465.275 315.5,466C 313.502,467.724 312.502,467.057 312.5,464C 313.29,461.718 314.29,459.552 315.5,457.5C 316.738,458.412 318.072,458.579 319.5,458C 318.833,457.667 318.167,457.333 317.5,457C 319.215,456.223 320.215,454.89 320.5,453C 320.046,451.061 319.379,449.228 318.5,447.5 Z"/></g>
<g><path style="opacity:1" fill="#272013" d="M 315.5,457.5 C 314.566,456.432 314.232,455.099 314.5,453.5C 315.552,453.351 316.552,453.517 317.5,454C 316.027,454.71 315.36,455.876 315.5,457.5 Z"/></g>
<g><path style="opacity:1" fill="#130f07" d="M 187.5,461.5 C 187.267,463.062 186.6,464.395 185.5,465.5C 184.566,464.432 184.232,463.099 184.5,461.5C 185.5,461.5 186.5,461.5 187.5,461.5 Z"/></g>
<g><path style="opacity:1" fill="#cba253" d="M 187.5,461.5 C 188.492,461.328 189.158,461.662 189.5,462.5C 187.427,468.396 188.427,468.729 192.5,463.5C 193.376,463.369 194.043,463.702 194.5,464.5C 192.476,466.358 190.309,468.025 188,469.5C 187.22,471.387 187.387,473.054 188.5,474.5C 189.833,475.5 189.833,476.5 188.5,477.5C 187.504,477.414 186.671,477.748 186,478.5C 185.502,475.518 185.335,472.518 185.5,469.5C 185.5,468.167 185.5,466.833 185.5,465.5C 186.6,464.395 187.267,463.062 187.5,461.5 Z"/></g>
<g><path style="opacity:1" fill="#cda454" d="M 179.5,462.5 C 180.181,470.235 180.848,478.068 181.5,486C 193.193,486.693 204.86,486.36 216.5,485C 217.942,484.623 218.942,483.79 219.5,482.5C 221.196,482.315 222.529,481.481 223.5,480C 226.167,479.333 228.833,479.333 231.5,480C 228.21,480.253 225.21,481.253 222.5,483C 221.167,484.667 221.167,486.333 222.5,488C 206.837,488.5 191.17,488.667 175.5,488.5C 175.334,480.826 175.5,473.159 176,465.5C 177.039,464.29 178.206,463.29 179.5,462.5 Z"/></g>
<g><path style="opacity:1" fill="#5a4826" d="M 189.5,462.5 C 190.791,462.263 191.791,462.596 192.5,463.5C 188.427,468.729 187.427,468.396 189.5,462.5 Z"/></g>
<g><path style="opacity:1" fill="#cfa655" d="M 196.5,474.5 C 197.091,473.849 197.757,473.182 198.5,472.5C 197.855,471.268 197.689,469.935 198,468.5C 196.887,469.711 195.72,469.711 194.5,468.5C 193.818,469.243 193.151,469.909 192.5,470.5C 192.351,469.448 192.517,468.448 193,467.5C 195.5,465.464 198.167,465.13 201,466.5C 202.284,470.949 200.784,473.615 196.5,474.5 Z"/></g>
<g><path style="opacity:1" fill="#2e2515" d="M 302.5,483.5 C 300.842,482.819 299.175,481.985 297.5,481C 298.025,480.308 298.692,479.808 299.5,479.5C 304.27,481.536 309.27,482.036 314.5,481C 313.953,480.075 313.287,479.242 312.5,478.5C 309.966,479.788 307.466,479.788 305,478.5C 301.481,474.098 299.314,469.098 298.5,463.5C 299.167,463.5 299.833,463.5 300.5,463.5C 306.051,463.215 310.717,465.048 314.5,469C 315.833,471.333 315.833,473.667 314.5,476C 315.333,476.833 316.167,477.667 317,478.5C 317.667,473.833 317.667,469.167 317,464.5C 315.033,463.269 315.199,462.269 317.5,461.5C 318.497,468.468 318.83,475.468 318.5,482.5C 313.073,482.218 307.74,482.551 302.5,483.5 Z"/></g>
<g><path style="opacity:1" fill="#be974e" d="M 300.5,464.5 C 303.899,464.807 307.066,465.807 310,467.5C 310.781,468.944 310.614,470.277 309.5,471.5C 308.084,469.861 306.417,469.027 304.5,469C 306,471.833 308.167,474 311,475.5C 311.617,476.449 311.451,477.282 310.5,478C 309.167,478.667 307.833,478.667 306.5,478C 305.167,477 305.167,476 306.5,475C 305.234,474.691 304.067,474.191 303,473.5C 301.85,470.582 301.017,467.582 300.5,464.5 Z"/></g>
<g><path style="opacity:1" fill="#daae59" d="M 184.5,469.5 C 184.5,473.833 184.5,478.167 184.5,482.5C 189.927,482.218 195.26,482.551 200.5,483.5C 194.69,484.49 188.69,484.823 182.5,484.5C 182.334,478.491 182.501,472.491 183,466.5C 184.039,467.244 184.539,468.244 184.5,469.5 Z"/></g>
<g><path style="opacity:1" fill="#d4a957" d="M 311.5,469.5 C 314.084,470.048 315.084,471.715 314.5,474.5C 311.001,474.741 310.668,473.908 313.5,472C 312.244,471.583 311.577,470.75 311.5,469.5 Z"/></g>
<g><path style="opacity:1" fill="#d1a756" d="M 191.5,470.5 C 188.875,471.441 188.875,472.607 191.5,474C 190.552,474.483 189.552,474.649 188.5,474.5C 188.343,473.127 188.51,471.793 189,470.5C 189.977,469.226 190.811,469.226 191.5,470.5 Z"/></g>
<g><path style="opacity:1" fill="#151108" d="M 271.5,479.5 C 273.631,478.686 275.964,478.186 278.5,478C 276.277,475.777 273.611,474.444 270.5,474C 273.659,473.989 276.493,473.155 279,471.5C 279.147,474.571 279.98,477.404 281.5,480C 278.254,479.683 274.92,479.517 271.5,479.5 Z"/></g>
<g><path style="opacity:1" fill="#cda454" d="M 195.5,475.5 C 196.376,475.369 197.043,475.702 197.5,476.5C 196.332,478.217 194.665,478.884 192.5,478.5C 192.259,475.001 193.092,474.668 195,477.5C 195.464,476.906 195.631,476.239 195.5,475.5 Z"/></g>
<g><path style="opacity:1" fill="#564525" d="M 206.5,478.5 C 204.292,476.857 202.459,477.19 201,479.5C 199.494,477.568 200.16,476.234 203,475.5C 204.95,475.707 206.116,476.707 206.5,478.5 Z"/></g>
<g><path style="opacity:1" fill="#5f4c27" d="M 196.5,474.5 C 195.833,474.5 195.167,474.5 194.5,474.5C 194.5,475.167 194.833,475.5 195.5,475.5C 195.631,476.239 195.464,476.906 195,477.5C 193.092,474.668 192.259,475.001 192.5,478.5C 192.5,478.833 192.5,479.167 192.5,479.5C 191.5,478.167 190.5,478.167 189.5,479.5C 189.672,478.508 189.338,477.842 188.5,477.5C 189.833,476.5 189.833,475.5 188.5,474.5C 189.552,474.649 190.552,474.483 191.5,474C 188.875,472.607 188.875,471.441 191.5,470.5C 191.833,470.5 192.167,470.5 192.5,470.5C 193.151,469.909 193.818,469.243 194.5,468.5C 195.72,469.711 196.887,469.711 198,468.5C 197.689,469.935 197.855,471.268 198.5,472.5C 197.757,473.182 197.091,473.849 196.5,474.5 Z"/></g>
<g><path style="opacity:1" fill="#010100" d="M 194.5,474.5 C 192.115,473.133 192.448,471.799 195.5,470.5C 195.833,470.833 196.167,471.167 196.5,471.5C 195.807,472.518 195.141,473.518 194.5,474.5 Z"/></g>
<g><path style="opacity:1" fill="#322816" d="M 184.5,469.5 C 184.833,469.5 185.167,469.5 185.5,469.5C 185.335,472.518 185.502,475.518 186,478.5C 186.671,477.748 187.504,477.414 188.5,477.5C 189.338,477.842 189.672,478.508 189.5,479.5C 189.389,480.117 189.056,480.617 188.5,481C 193.167,481.667 197.833,481.667 202.5,481C 204.506,478.952 205.506,479.452 205.5,482.5C 203.585,482.216 201.919,482.549 200.5,483.5C 195.26,482.551 189.927,482.218 184.5,482.5C 184.5,478.167 184.5,473.833 184.5,469.5 Z"/></g>
<g><path style="opacity:1" fill="#caa253" d="M 264.5,481.5 C 265.313,482.653 266.313,482.653 267.5,481.5C 268.711,482.274 268.711,483.107 267.5,484C 257.991,484.17 248.658,484.67 239.5,485.5C 237.379,485.675 235.379,485.341 233.5,484.5C 232.737,483.732 231.737,483.232 230.5,483C 232.447,482.009 234.447,481.675 236.5,482C 235.984,484.033 236.65,484.033 238.5,482C 247.16,481.5 255.827,481.334 264.5,481.5 Z"/></g>
<g><path style="opacity:1" fill="#100c06" d="M 274.5,480.5 C 276.583,481.588 278.749,482.588 281,483.5C 281.765,485.066 281.598,486.399 280.5,487.5C 279.833,487.167 279.167,486.833 278.5,486.5C 275.5,486.5 272.5,486.5 269.5,486.5C 271.218,485.776 273.052,485.109 275,484.5C 275.579,483.072 275.412,481.738 274.5,480.5 Z"/></g>
<g><path style="opacity:1" fill="#5f4c27" d="M 187.5,461.5 C 186.5,461.5 185.5,461.5 184.5,461.5C 184.232,463.099 184.566,464.432 185.5,465.5C 185.5,466.833 185.5,468.167 185.5,469.5C 185.167,469.5 184.833,469.5 184.5,469.5C 184.539,468.244 184.039,467.244 183,466.5C 182.501,472.491 182.334,478.491 182.5,484.5C 188.69,484.823 194.69,484.49 200.5,483.5C 201.919,482.549 203.585,482.216 205.5,482.5C 206.434,481.432 206.768,480.099 206.5,478.5C 208.642,478.69 210.975,478.856 213.5,479C 211.899,479.273 210.399,479.773 209,480.5C 208.42,483.547 208.753,483.881 210,481.5C 210.745,482.99 211.912,483.99 213.5,484.5C 215.516,483.822 217.516,483.156 219.5,482.5C 218.942,483.79 217.942,484.623 216.5,485C 204.86,486.36 193.193,486.693 181.5,486C 180.848,478.068 180.181,470.235 179.5,462.5C 180.688,461.636 181.855,460.636 183,459.5C 184.622,460.099 186.122,460.766 187.5,461.5 Z"/></g>
<g><path style="opacity:1" fill="#4f3f22" d="M 271.5,479.5 C 272.209,480.404 273.209,480.737 274.5,480.5C 275.412,481.738 275.579,483.072 275,484.5C 273.052,485.109 271.218,485.776 269.5,486.5C 259.5,486.5 249.5,486.5 239.5,486.5C 239.5,486.167 239.5,485.833 239.5,485.5C 248.658,484.67 257.991,484.17 267.5,484C 268.711,483.107 268.711,482.274 267.5,481.5C 266.313,482.653 265.313,482.653 264.5,481.5C 264.5,481.167 264.5,480.833 264.5,480.5C 266.903,480.552 269.236,480.219 271.5,479.5 Z"/></g>
<g><path style="opacity:1" fill="#312715" d="M 257.5,480.5 C 259.833,480.5 262.167,480.5 264.5,480.5C 264.5,480.833 264.5,481.167 264.5,481.5C 255.827,481.334 247.16,481.5 238.5,482C 236.65,484.033 235.984,484.033 236.5,482C 234.447,481.675 232.447,482.009 230.5,483C 231.737,483.232 232.737,483.732 233.5,484.5C 235.379,485.341 237.379,485.675 239.5,485.5C 239.5,485.833 239.5,486.167 239.5,486.5C 234.353,486.777 229.353,487.11 224.5,487.5C 233.5,487.833 242.5,488.167 251.5,488.5C 260.859,488.498 269.859,487.832 278.5,486.5C 279.167,486.833 279.833,487.167 280.5,487.5C 295.991,488.496 311.658,488.83 327.5,488.5C 276.833,489.833 226.167,489.833 175.5,488.5C 191.17,488.667 206.837,488.5 222.5,488C 221.167,486.333 221.167,484.667 222.5,483C 225.21,481.253 228.21,480.253 231.5,480C 228.833,479.333 226.167,479.333 223.5,480C 222.529,481.481 221.196,482.315 219.5,482.5C 222.5,479.496 224.167,475.83 224.5,471.5C 226.896,473.067 229.563,473.9 232.5,474C 229.441,474.058 227.108,475.391 225.5,478C 235.947,480.273 246.614,481.106 257.5,480.5 Z"/></g>
<g><path style="opacity:1" fill="#d5aa57" d="M 239.5,486.5 C 249.5,486.5 259.5,486.5 269.5,486.5C 272.5,486.5 275.5,486.5 278.5,486.5C 269.859,487.832 260.859,488.498 251.5,488.5C 242.5,488.167 233.5,487.833 224.5,487.5C 229.353,487.11 234.353,486.777 239.5,486.5 Z"/></g>
<g><path style="opacity:1" fill="#b5914a" d="M 233.5,484.5 C 231.162,485.947 229.162,485.447 227.5,483C 229.131,481.164 229.798,481.664 229.5,484.5C 230.833,484.5 232.167,484.5 233.5,484.5 Z"/></g>
</svg>
